#!OML:ASF I:\Actors\actors\Patient Classification 2\Patient 1\Session 1\actor1.ASF
:FULLY-SPECIFIED
:DEGREES
234
root -0.814811 18.7506 5.48025 3.29608 -1.90709 -1.25975
lowerback 11.0941 0.593188 -1.59399
upperback 4.26596 0.657803 1.60307
thorax -1.80689 0.304417 2.47953
lowerneck -13.8262 -2.63933 -2.12805
upperneck 41.7161 -4.08645 1.46142
head 17.9029 -1.79089 0.300781
rclavicle -4.82053e-015 -2.38542e-015
rhumerus -95.9622 32.4148 -101.119
rradius 99.2913
rwrist -50.0313
rhand 4.05485 -67.4545
rfingers 7.12502
rthumb 29.4681 -624.863
lclavicle -4.82053e-015 -2.38542e-015
lhumerus -87.4017 -35.0073 97.5455
lradius 104.716
lwrist 72.0143
lhand -10.4298 12.8501
lfingers 7.12502
lthumb 15.5697 42.2434
rfemur 0 0 0
rtibia 0
rfoot 0 0
rtoes 0
lfemur -7.75726 -4.2993 -12.1496
ltibia 21.4555
lfoot -20.5133 12.5949
ltoes -56.617
235
root -0.805227 18.7514 5.4648 3.26004 -1.91347 -1.24667
lowerback 11.1892 0.542408 -1.58544
upperback 4.29852 0.591348 1.64033
thorax -1.82147 0.270923 2.52159
lowerneck -13.8167 -2.62633 -1.92742
upperneck 41.7714 -4.03267 1.20968
head 17.9152 -1.77244 0.157642
rclavicle -1.39149e-015 -1.21259e-014
rhumerus -95.0175 33.5517 -100.97
rradius 99.0891
rwrist -48.5299
rhand 3.47783 -67.2193
rfingers 7.12502
rthumb 28.9171 -625.003
lclavicle -1.39149e-015 -1.21259e-014
lhumerus -85.9145 -36.0039 97.4042
lradius 104.4
lwrist 69.9839
lhand -10.1058 12.6708
lfingers 7.12502
lthumb 15.8818 42.0395
rfemur 0 0 0
rtibia 0
rfoot 0 0
rtoes 0
lfemur -7.77688 -4.27508 -12.1854
ltibia 21.4742
lfoot -20.5567 12.4905
ltoes -56.4002
236
root -0.794546 18.7514 5.4493 3.21271 -1.91183 -1.23355
lowerback 11.3036 0.499824 -1.5566
upperback 4.33085 0.537851 1.681
thorax -1.84726 0.244128 2.55421
lowerneck -13.977 -2.64259 -2.19042
upperneck 42.0178 -4.05121 1.37957
head 18.1217 -1.79535 0.277275
rclavicle 3.47873e-016 1.23246e-014
rhumerus -94.1395 34.5935 -100.876
rradius 98.852
rwrist -47.0427
rhand 2.69619 -66.4783
rfingers 7.12502
rthumb 28.1702 -625.618
lclavicle 3.47873e-016 1.23246e-014
lhumerus -84.3602 -37.0586 97.2872
lradius 104.025
lwrist 67.669
lhand -9.50625 12.3509
lfingers 7.12502
lthumb 16.4591 41.6727
rfemur 0 0 0
rtibia 0
rfoot 0 0
rtoes 0
lfemur -7.7876 -4.23009 -12.2286
ltibia 21.5003
lfoot -20.5908 12.3894
ltoes -56.23
237
root -0.782667 18.7511 5.43218 3.15615 -1.91683 -1.29108
lowerback 11.452 0.461041 -1.47616
upperback 4.36267 0.495855 1.76312
thorax -1.8927 0.223349 2.59946
lowerneck -14.0659 -2.64661 -2.31354
upperneck 42.1541 -4.03249 1.40469
head 18.2329 -1.80256 0.313086
rclavicle 2.28602e-015 1.37161e-014
rhumerus -93.146 35.7104 -100.615
rradius 98.6444
rwrist -46.0342
rhand 1.94715 -65.7287
rfingers 7.12502
rthumb 27.454 -626.252
lclavicle 2.28602e-015 1.37161e-014
lhumerus -82.7132 -38.0893 97.1359
lradius 103.635
lwrist 65.943
lhand -9.05374 11.9979
lfingers 7.12502
lthumb 16.8947 41.283
rfemur 0 0 0
rtibia 0
rfoot 0 0
rtoes 0
lfemur -7.79679 -4.14479 -12.1979
ltibia 21.5233
lfoot -20.5592 12.3101
ltoes -56.1646
238
root -0.771953 18.7511 5.4146 3.08454 -1.87365 -1.32135
lowerback 11.6142 0.406657 -1.42437
upperback 4.39387 0.43016 1.83429
thorax -1.94497 0.190751 2.65286
lowerneck -14.0924 -2.64228 -2.34883
upperneck 42.2457 -3.99996 1.35972
head 18.2943 -1.80091 0.303847
rclavicle 7.95139e-016 7.35503e-015
rhumerus -92.0765 36.9044 -100.291
rradius 98.5135
rwrist -45.1641
rhand 1.20613 -65.4674
rfingers 7.12502
rthumb 26.7451 -626.403
lclavicle 7.95139e-016 7.35503e-015
lhumerus -81.0105 -39.0844 96.8898
lradius 103.299
lwrist 65.1749
lhand -8.97791 11.8718
lfingers 7.12502
lthumb 16.9677 41.1507
rfemur 0 0 0
rtibia 0
rfoot 0 0
rtoes 0
lfemur -7.80671 -4.05598 -12.186
ltibia 21.553
lfoot -20.4779 12.188
ltoes -56.1483
